<svg xmlns="http://www.w3.org/2000/svg" width="1200" height="320" viewBox="0 0 1200 320" role="img" aria-label="GISA: Generador de Ideas Sorpresa para el mundo académico, Xesco Tejedor">
<defs><linearGradient id="bg"><stop stop-color="#161215"/><stop offset="1" stop-color="#302029"/></linearGradient><radialGradient id="glow"><stop stop-color="#ffb800" stop-opacity=".18"/><stop offset="1" stop-color="#ffb800" stop-opacity="0"/></radialGradient></defs>
<rect width="1200" height="320" rx="24" fill="url(#bg)"/><circle cx="1020" cy="160" r="240" fill="url(#glow)"/><rect x="44" y="46" width="34" height="4" rx="2" fill="#ffb800"/>
<g font-family="Space Grotesk,Arial,sans-serif"><text x="44" y="80" fill="#ffb800" font-size="15" letter-spacing="3">XESCO TEJEDOR · LABORATORIO DE IDEAS</text><text x="40" y="172" fill="#ffb800" font-size="82" font-weight="700" letter-spacing="-4">GISA</text><text x="44" y="222" fill="#f4eee5" font-size="28" font-weight="600">Generador de Ideas Sorpresa</text><text x="44" y="263" fill="#c4b9bd" font-size="20">Una imagen. Otra mirada. Una app inesperada.</text></g>
<g fill="none" stroke="#ffb800" stroke-width="2"><rect x="912" y="77" width="178" height="178" rx="22" transform="rotate(8 1001 166)" opacity=".28"/><rect x="901" y="89" width="178" height="178" rx="22" transform="rotate(-8 990 178)" opacity=".65"/><path d="M974 131c-25 0-41 30-21 48 9 8 11 13 11 22h24c0-9 3-14 12-22 20-18 2-48-26-48zM964 213h24m-20 9h16"/><path d="M974 108v-11m-58 59h-12m128 0h12m-28-39 8-8m-99 8-8-8" stroke="#65d8e6"/></g>
</svg>
